<svg width="45" height="62" viewBox="0 0 45 62" fill="none" xmlns="http://www.w3.org/2000/svg">
<path d="M42.0485 62H0.796198V53.056L21.8631 31.6947C26.5642 26.7741 28.9147 22.7217 28.9147 19.5378C28.9147 17.1643 28.1508 15.2539 26.6229 13.8067C25.1539 12.3595 23.244 11.6359 20.8935 11.6359C16.1923 11.6359 12.7546 14.0094 10.5804 18.7563L0.355469 12.8515C2.23592 8.74136 4.96844 5.58638 8.55303 3.38656C12.1964 1.12886 16.2511 0 20.7172 0C26.2998 0 31.089 1.7367 35.0849 5.21009C39.0809 8.62558 41.0789 13.2567 41.0789 19.1036C41.0789 25.4136 37.6999 31.8973 30.9421 38.5546L18.8661 50.451H42.0485V62Z" fill="#F49200"/>
</svg>
