<svg width="46" height="62" viewBox="0 0 46 62" fill="none" xmlns="http://www.w3.org/2000/svg">
<path d="M41.9524 9.89916L30.1128 24.6611C34.5112 25.8768 38.0059 28.0186 40.5968 31.0868C43.2479 34.155 44.5734 37.8021 44.5734 42.028C44.5734 48.2801 42.3742 53.1718 37.9758 56.7031C33.6978 60.2343 28.3654 62 21.9787 62C16.9777 62 12.5491 60.9001 8.69297 58.7003C4.8368 56.4426 2.03505 53.2587 0.28772 49.1485L10.9524 43.2437C12.4587 47.9328 16.1342 50.2773 21.9787 50.2773C25.1721 50.2773 27.6424 49.5537 29.3898 48.1064C31.1973 46.6013 32.1011 44.5752 32.1011 42.028C32.1011 39.5388 31.1973 37.5416 29.3898 36.0364C27.6424 34.5312 25.1721 33.7787 21.9787 33.7787H19.2673L14.4772 26.8319L26.9495 11.2017H2.18568V0H41.9524V9.89916Z" fill="#F49200"/>
</svg>
