<svg width="45" height="62" viewBox="0 0 45 62" fill="none" xmlns="http://www.w3.org/2000/svg">
<path d="M15.7617 22.1429H21.8179C27.5375 22.1429 32.3039 23.9085 36.117 27.4398C39.9862 30.9132 41.9208 35.7759 41.9208 42.028C41.9208 48.2801 39.874 53.1718 35.7805 56.7031C31.7992 60.2343 26.8365 62 20.8926 62C16.0701 62 11.8365 60.9001 8.19161 58.7003C4.60281 56.4426 1.99532 53.2007 0.369141 48.9748L10.2944 42.9832C11.6963 47.8459 15.229 50.2773 20.8926 50.2773C23.8646 50.2773 26.1636 49.5537 27.7898 48.1064C29.4721 46.6013 30.3132 44.5752 30.3132 42.028C30.3132 39.5388 29.5002 37.5416 27.874 36.0364C26.2477 34.5312 24.0329 33.7787 21.2291 33.7787H3.39719L5.75235 0H39.145V11.2017H16.5188L15.7617 22.1429Z" fill="#F49200"/>
</svg>
