<svg width="90" height="90" viewBox="0 0 90 90" fill="none" xmlns="http://www.w3.org/2000/svg">
<path d="M50.9279 64.9888H24.4888V11H23.407H18.0999H10V79.4774H11.6301H24.4888H50.9279V64.9888ZM48.7644 67.1523V69.1165H24.4888V67.1523H48.7644ZM24.4888 71.2801H48.7644V73.186H24.4888V71.2801ZM18.1001 13.1636H22.3254V23.4337H20.1995V25.5973H22.3254V27.5783H18.1001V29.7418H18.1646V29.8064H22.3252V32.0201H20.1993V34.1837H22.3252V36.3972H18.0999V38.5608H22.3252V40.2771H20.1993V42.4406H22.3252V44.1569H18.0999V46.3205H22.3252V48.3014H20.1993V50.465H22.3252V52.4459H18.0999V54.6095H22.3252V56.5906H20.1993V58.7542H22.3252V60.7352H18.0999V62.8988H22.3252V65.6249L12.1636 75.8714V13.1636H18.1001ZM13.7803 77.3138L22.3254 68.6975V77.3138H13.7803ZM24.4888 77.3138V75.3494H48.7644V77.3138H24.4888Z" fill="#F49200"/>
<path d="M17.2446 21.0524C18.9403 21.0524 20.3201 19.6728 20.3201 17.9769C20.3201 16.281 18.9405 14.9014 17.2446 14.9014C15.5487 14.9014 14.1691 16.281 14.1691 17.9769C14.1691 19.6726 15.5487 21.0524 17.2446 21.0524ZM17.2446 17.0649C17.7475 17.0649 18.1565 17.474 18.1565 17.9769C18.1565 18.4796 17.7475 18.8888 17.2446 18.8888C16.7417 18.8888 16.3326 18.4796 16.3326 17.9769C16.3326 17.474 16.7417 17.0649 17.2446 17.0649Z" fill="#F49200"/>
<path d="M71.2895 19.5679L37.1617 53.6955L45.8724 62.4063L80 28.2786L71.2895 19.5679ZM40.2215 53.6955L42.4902 51.4268L44.0272 52.9638L45.5569 51.4338L44.02 49.897L45.3173 48.5997L48.3665 51.6489L49.8961 50.1191L46.8469 47.0699L48.1802 45.7368L49.7012 47.2576L51.2309 45.7279L49.7099 44.2071L51.0722 42.8448L54.0599 45.8325L55.5896 44.3027L52.6021 41.3151L53.8155 40.1017L55.3186 41.6049L56.8486 40.075L55.3453 38.5717L56.5587 37.3583L59.5464 40.346L61.0761 38.8162L58.0885 35.8285L59.4895 34.4275L60.9928 35.9309L62.5224 34.401L61.0191 32.8979L62.42 31.497L65.4078 34.4847L66.9374 32.9549L63.9499 29.9673L65.351 28.5662L66.8543 30.0695L68.3839 28.5397L66.8806 27.0364L68.2815 25.6355L71.2693 28.6232L72.7989 27.0932L69.8114 24.1056L71.2889 22.6281L76.94 28.2792L45.8726 59.3466L40.2215 53.6955Z" fill="#F49200"/>
<path d="M37.4187 19.7593V35.7505L53.4097 19.7593H37.4187ZM39.5823 21.9229H48.1865L39.5823 30.5271V21.9229Z" fill="#F49200"/>
<path d="M35.2659 13.0005H31.984H30.9022V51.4025L69.3041 13.0005H35.2659ZM33.0657 42.3461H34.6682V40.1825H33.0657V38.463H35.9489V36.2994H33.0657V34.5799H34.6682V32.4163H33.0657V30.6966H35.9489V28.533H33.0657V26.8135H34.6682V24.6499H33.0657V22.9304H35.9489V20.7668H33.0657V19.0473H34.6682V16.8838H33.0657V15.1643H35.2659H64.0807L33.0657 46.1792V42.3461Z" fill="#F49200"/>
</svg>
