<svg width="70" height="70" viewBox="0 0 70 70" fill="none" xmlns="http://www.w3.org/2000/svg">
<path d="M10.465 42.9935H18.7322C20.2517 42.9935 21.4879 41.7573 21.4879 40.2378V31.9705C21.4879 30.4511 20.2517 29.2148 18.7322 29.2148H10.465C8.9455 29.2148 7.70929 30.4511 7.70929 31.9705V40.2378C7.70929 41.7573 8.9455 42.9935 10.465 42.9935ZM9.91388 31.9705C9.91388 31.6666 10.1612 31.4194 10.465 31.4194H18.7322C19.0362 31.4194 19.2834 31.6668 19.2834 31.9705V40.2378C19.2834 40.5417 19.036 40.7889 18.7322 40.7889H10.465C10.1611 40.7889 9.91388 40.5416 9.91388 40.2378V31.9705Z" fill="#F49200"/>
<path d="M11.0162 62.284H19.2835C20.803 62.284 22.0392 61.0478 22.0392 59.5283V51.2611C22.0392 49.7416 20.803 48.5054 19.2835 48.5054H11.0162C9.49674 48.5054 8.26053 49.7416 8.26053 51.2611V59.5283C8.26039 61.0478 9.4966 62.284 11.0162 62.284ZM10.465 51.2611C10.465 50.9571 10.7123 50.71 11.0161 50.71H19.2833C19.5873 50.71 19.8345 50.9573 19.8345 51.2611V59.5283C19.8345 59.8322 19.5871 60.0794 19.2833 60.0794H11.0162C10.7123 60.0794 10.4651 59.8321 10.4651 59.5283L10.465 51.2611Z" fill="#F49200"/>
<path d="M55.6593 35.8286C56.2681 35.8286 56.7617 35.3352 56.7617 34.7262V31.9705C56.7617 30.4511 55.5254 29.2148 54.006 29.2148H45.7387C44.2192 29.2148 42.983 30.4511 42.983 31.9705V36.3797C42.983 36.9885 43.4764 37.4821 44.0854 37.4821C44.6942 37.4821 45.1877 36.9885 45.1877 36.3797V31.9705C45.1877 31.6666 45.4351 31.4194 45.7388 31.4194H54.0061C54.31 31.4194 54.5572 31.6668 54.5572 31.9705V34.7262C54.5571 35.3352 55.0505 35.8286 55.6593 35.8286Z" fill="#F49200"/>
<path d="M39.1248 40.2378V31.9705C39.1248 30.4511 37.8886 29.2148 36.3691 29.2148H28.1019C26.5824 29.2148 25.3462 30.4511 25.3462 31.9705V40.2378C25.3462 41.7573 26.5824 42.9935 28.1019 42.9935H36.3691C37.8886 42.9935 39.1248 41.7573 39.1248 40.2378ZM27.5508 40.2378V31.9705C27.5508 31.6666 27.7981 31.4194 28.1019 31.4194H36.3691C36.673 31.4194 36.9202 31.6668 36.9202 31.9705V40.2378C36.9202 40.5417 36.6729 40.7889 36.3691 40.7889H28.1019C27.7979 40.7889 27.5508 40.5416 27.5508 40.2378Z" fill="#F49200"/>
<path d="M28.1019 50.7096H34.1645C34.7733 50.7096 35.2669 50.2162 35.2669 49.6072C35.2669 48.9984 34.7733 48.5049 34.1645 48.5049H28.1019C26.5824 48.5049 25.3462 49.7411 25.3462 51.2606V59.5278C25.3462 61.0473 26.5824 62.2835 28.1019 62.2835H34.7156C35.3244 62.2835 35.818 61.7901 35.818 61.1812C35.818 60.5724 35.3244 60.0788 34.7156 60.0788H28.1019C27.7979 60.0788 27.5508 59.8315 27.5508 59.5277V51.2604C27.5508 50.9568 27.7979 50.7096 28.1019 50.7096Z" fill="#F49200"/>
<path d="M21.5056 0H20.4032C17.668 0 15.4429 2.22523 15.4429 4.96029V8.26725H7.72693C4.08009 8.26725 1.11316 11.2342 1.11316 14.881V63.3821C1.11316 67.0291 4.08009 69.9959 7.72693 69.9959H34.7333C35.3421 69.9959 35.8356 69.5023 35.8356 68.8935C35.8356 68.2847 35.3421 67.7912 34.7333 67.7912H7.72693C5.29566 67.7912 3.31775 65.8133 3.31775 63.382V24.2504H61.1885V36.9268C61.1885 37.5356 61.6819 38.0291 62.2908 38.0291C62.8996 38.0291 63.3932 37.5356 63.3932 36.9268V14.881C63.3932 11.2342 60.4263 8.26725 56.7794 8.26725H49.0633V4.96029C49.0632 2.22523 46.8379 0 44.1027 0H43.0004C40.2652 0 38.0401 2.22523 38.0401 4.96029V8.26725H26.466V4.96029C26.466 2.22523 24.2408 0 21.5056 0ZM17.6475 4.96029C17.6475 3.4408 18.8837 2.20459 20.4032 2.20459H21.5056C23.0251 2.20459 24.2613 3.4408 24.2613 4.96029V8.26725H17.6475V4.96029ZM40.2447 4.96029C40.2447 3.4408 41.4809 2.20459 43.0004 2.20459H44.1027C45.6222 2.20459 46.8584 3.4408 46.8584 4.96029V8.26725H40.2447V4.96029ZM43.0005 17.6369H43.5516V18.7392C43.5516 19.348 44.0452 19.8416 44.654 19.8416C45.2628 19.8416 45.7563 19.348 45.7563 18.7392V13.7789C45.7563 13.1701 45.2628 12.6766 44.654 12.6766C44.0452 12.6766 43.5516 13.1701 43.5516 13.7789V15.4324H43.0005C41.481 15.4324 40.2448 14.1962 40.2448 12.6767V10.4718H56.7793C59.2106 10.4718 61.1885 12.4497 61.1885 14.881V22.0459H3.31761V14.881C3.31761 12.4497 5.29552 10.4718 7.72679 10.4718H15.4429V12.6764C15.4429 15.4116 17.6682 17.6367 20.4032 17.6367H20.9543V18.7391C20.9543 19.3479 21.4479 19.8414 22.0567 19.8414C22.6655 19.8414 23.1591 19.3479 23.1591 18.7391V13.7788C23.1591 13.17 22.6655 12.6764 22.0567 12.6764C21.4479 12.6764 20.9543 13.17 20.9543 13.7788V15.4323H20.4032C18.8837 15.4323 17.6475 14.1961 17.6475 12.6766V10.4718H38.0401V12.6764C38.0401 15.4116 40.2653 17.6369 43.0005 17.6369Z" fill="#F49200"/>
<path d="M52.9036 38.0332C44.0903 38.0332 36.9202 45.2033 36.9202 54.0166C36.9202 62.8299 44.0903 69.9998 52.9036 69.9998C61.7169 69.9998 68.887 62.8297 68.887 54.0164C68.887 45.2031 61.7168 38.0332 52.9036 38.0332ZM52.9036 67.7952C45.306 67.7952 39.1248 61.6142 39.1248 54.0164C39.1248 46.4187 45.306 40.2377 52.9036 40.2377C60.5012 40.2377 66.6824 46.4187 66.6824 54.0164C66.6824 61.6142 60.5012 67.7952 52.9036 67.7952Z" fill="#F49200"/>
<path d="M60.6885 52.9142H54.0058V43.7513C54.0058 43.1425 53.5123 42.6489 52.9034 42.6489C52.2946 42.6489 51.8011 43.1425 51.8011 43.7513V54.0164C51.8011 54.6252 52.2946 55.1188 52.9034 55.1188H60.6885C61.2973 55.1188 61.7909 54.6253 61.7909 54.0164C61.7909 53.4076 61.2974 52.9142 60.6885 52.9142Z" fill="#F49200"/>
</svg>
