<svg width="70" height="70" viewBox="0 0 70 70" fill="none" xmlns="http://www.w3.org/2000/svg">
<g clip-path="url(#clip0_141_679)">
<path d="M48.125 48.125C47.521 48.125 47.0312 48.6147 47.0312 49.2188C47.0312 49.8228 47.521 50.3125 48.125 50.3125C49.3311 50.3125 50.3125 51.2939 50.3125 52.5C50.3125 53.104 50.8022 53.5938 51.4062 53.5938C52.0103 53.5938 52.5 53.104 52.5 52.5C52.5 50.0876 50.5374 48.125 48.125 48.125Z" fill="#F49200"/>
<path d="M57.9688 0H12.0312C10.2221 0 8.75 1.47205 8.75 3.28125V62.3438C8.75 64.1529 10.2221 65.625 12.0312 65.625H36.1055C36.1199 65.7316 36.1483 65.8371 36.1945 65.9371C36.3441 66.2607 36.6419 66.4912 36.9928 66.5547L39.8311 67.0681L42.3376 69.6657C42.545 69.8806 42.8297 70 43.1245 70C43.1695 70 43.2149 69.9971 43.26 69.9915C43.6018 69.9489 43.9034 69.7477 44.0742 69.4489L46.2595 65.625H49.9656L52.1296 69.4453C52.2997 69.7456 52.6014 69.9479 52.9438 69.9914C52.9897 69.9971 53.0357 70 53.0813 70C53.3762 70 53.6609 69.8806 53.8683 69.6657L56.3747 67.0681L59.213 66.5547C59.5632 66.4914 59.8605 66.2617 60.0104 65.939C60.159 65.619 60.1435 65.2474 59.97 64.9405C60.7686 64.3229 61.25 63.3623 61.25 62.3438V3.28125C61.25 1.47205 59.778 0 57.9688 0ZM10.9375 62.3438V3.28125C10.9375 2.67818 11.4282 2.1875 12.0312 2.1875H57.9688C58.5718 2.1875 59.0625 2.67818 59.0625 3.28125V62.3438C59.0625 62.5784 58.984 62.8035 58.8473 62.9889L55.5074 57.188C56.3717 55.8317 56.875 54.224 56.875 52.5C56.875 47.6752 52.9498 43.75 48.125 43.75C43.3002 43.75 39.375 47.6752 39.375 52.5C39.375 54.2229 39.8776 55.8298 40.741 57.1855L37.1085 63.4375H12.0312C11.4282 63.4375 10.9375 62.9468 10.9375 62.3438ZM48.125 59.0625C44.5065 59.0625 41.5625 56.1185 41.5625 52.5C41.5625 48.8815 44.5065 45.9375 48.125 45.9375C51.7435 45.9375 54.6875 48.8815 54.6875 52.5C54.6875 56.1185 51.7435 59.0625 48.125 59.0625ZM42.8988 67.0971L41.1601 65.2952C41.0007 65.1301 40.7936 65.0193 40.5677 64.9785L38.9166 64.6797L42.2363 58.9661C43.3731 60.0024 44.7833 60.7435 46.3445 61.0675L42.8988 67.0971ZM47.5096 63.4375L48.1208 62.368L48.7266 63.4375H47.5096ZM55.6384 64.9785C55.4125 65.0193 55.2054 65.1301 55.046 65.2952L53.3113 67.0928L49.8991 61.0688C51.4608 60.7459 52.8717 60.0057 54.0095 58.9701L57.2961 64.6785L55.6384 64.9785Z" fill="#F49200"/>
<path d="M43.75 16.4062C44.354 16.4062 44.8438 15.9165 44.8438 15.3125C44.8438 14.7085 44.354 14.2188 43.75 14.2188H26.25C25.646 14.2188 25.1562 14.7085 25.1562 15.3125C25.1562 15.9165 25.646 16.4062 26.25 16.4062H43.75Z" fill="#F49200"/>
<path d="M49.2188 19.6875H20.7812C20.1772 19.6875 19.6875 20.1772 19.6875 20.7812C19.6875 21.3853 20.1772 21.875 20.7812 21.875H49.2188C49.8228 21.875 50.3125 21.3853 50.3125 20.7812C50.3125 20.1772 49.8228 19.6875 49.2188 19.6875Z" fill="#F49200"/>
<path d="M24.0625 30.625H25.1562C25.7603 30.625 26.25 30.1353 26.25 29.5312C26.25 28.9272 25.7603 28.4375 25.1562 28.4375H24.0625C23.4585 28.4375 22.9688 28.9272 22.9688 29.5312C22.9688 30.1353 23.4585 30.625 24.0625 30.625Z" fill="#F49200"/>
<path d="M24.0625 36.0938H25.1562C25.7603 36.0938 26.25 35.604 26.25 35C26.25 34.396 25.7603 33.9062 25.1562 33.9062H24.0625C23.4585 33.9062 22.9688 34.396 22.9688 35C22.9688 35.604 23.4585 36.0938 24.0625 36.0938Z" fill="#F49200"/>
<path d="M24.0625 41.5625H25.1562C25.7603 41.5625 26.25 41.0728 26.25 40.4688C26.25 39.8647 25.7603 39.375 25.1562 39.375H24.0625C23.4585 39.375 22.9688 39.8647 22.9688 40.4688C22.9688 41.0728 23.4585 41.5625 24.0625 41.5625Z" fill="#F49200"/>
<path d="M45.9375 28.4375H29.5312C28.9272 28.4375 28.4375 28.9272 28.4375 29.5312C28.4375 30.1353 28.9272 30.625 29.5312 30.625H45.9375C46.5415 30.625 47.0312 30.1353 47.0312 29.5312C47.0312 28.9272 46.5415 28.4375 45.9375 28.4375Z" fill="#F49200"/>
<path d="M45.9375 33.9062H29.5312C28.9272 33.9062 28.4375 34.396 28.4375 35C28.4375 35.604 28.9272 36.0938 29.5312 36.0938H45.9375C46.5415 36.0938 47.0312 35.604 47.0312 35C47.0312 34.396 46.5415 33.9062 45.9375 33.9062Z" fill="#F49200"/>
<path d="M45.9375 39.375H29.5312C28.9272 39.375 28.4375 39.8647 28.4375 40.4688C28.4375 41.0728 28.9272 41.5625 29.5312 41.5625H45.9375C46.5415 41.5625 47.0312 41.0728 47.0312 40.4688C47.0312 39.8647 46.5415 39.375 45.9375 39.375Z" fill="#F49200"/>
<path d="M19.6875 51.4062C19.6875 52.0103 20.1772 52.5 20.7812 52.5H30.625C31.229 52.5 31.7188 52.0103 31.7188 51.4062C31.7188 50.8022 31.229 50.3125 30.625 50.3125H20.7812C20.1772 50.3125 19.6875 50.8022 19.6875 51.4062Z" fill="#F49200"/>
<path d="M35 59.0625H19.5776C19.1414 56.923 17.452 55.2336 15.3125 54.7974V10.8276C17.452 10.3914 19.1414 8.70201 19.5776 6.5625H50.4223C50.8584 8.70201 52.5479 10.3914 54.6874 10.8276V43.75C54.6874 44.354 55.1771 44.8438 55.7811 44.8438C56.3851 44.8438 56.8749 44.354 56.8749 43.75V9.84375C56.8749 9.23973 56.3851 8.75 55.7811 8.75C53.9718 8.75 52.4999 7.27809 52.4999 5.46875C52.4999 4.86473 52.0101 4.375 51.4061 4.375H18.5938C17.9897 4.375 17.5 4.86473 17.5 5.46875C17.5 7.27809 16.0281 8.75 14.2188 8.75C13.6147 8.75 13.125 9.23973 13.125 9.84375V55.7812C13.125 56.3853 13.6147 56.875 14.2188 56.875C16.0281 56.875 17.5 58.3469 17.5 60.1562C17.5 60.7603 17.9897 61.25 18.5938 61.25H35C35.604 61.25 36.0938 60.7603 36.0938 60.1562C36.0938 59.5522 35.604 59.0625 35 59.0625Z" fill="#F49200"/>
</g>
<defs>
<clipPath id="clip0_141_679">
<rect width="70" height="70" fill="white"/>
</clipPath>
</defs>
</svg>
