<svg width="18" height="19" viewBox="0 0 18 19" fill="none" xmlns="http://www.w3.org/2000/svg">
<path d="M17.9937 9.72632C17.9937 10.2888 17.525 10.7294 16.9937 10.7294H15.9937L16.0156 15.7357C16.0156 15.8201 16.0094 15.9044 16 15.9888V16.4919C16 17.1826 15.4406 17.7419 14.75 17.7419H14.25C14.2156 17.7419 14.1813 17.7419 14.1469 17.7388C14.1031 17.7419 14.0594 17.7419 14.0156 17.7419H13H12.25C11.5594 17.7419 11 17.1826 11 16.4919V15.7419V13.7419C11 13.1888 10.5531 12.7419 10 12.7419H8C7.44688 12.7419 7 13.1888 7 13.7419V15.7419V16.4919C7 17.1826 6.44063 17.7419 5.75 17.7419H5H4.00313C3.95625 17.7419 3.90937 17.7388 3.8625 17.7357C3.825 17.7388 3.7875 17.7419 3.75 17.7419H3.25C2.55938 17.7419 2 17.1826 2 16.4919V12.9919C2 12.9638 2 12.9326 2.00312 12.9044V10.7294H1C0.4375 10.7294 0 10.2919 0 9.72632C0 9.44507 0.09375 9.19507 0.3125 8.97632L8.325 1.99194C8.54375 1.77319 8.79375 1.74194 9.0125 1.74194C9.23125 1.74194 9.48125 1.80444 9.66875 1.96069L17.65 8.97632C17.9 9.19507 18.025 9.44507 17.9937 9.72632Z" fill="#F49200"/>
</svg>
