<svg width="60" height="60" viewBox="0 0 60 60" fill="none" xmlns="http://www.w3.org/2000/svg">
<circle cx="30" cy="30" r="30" fill="#F49200"/>
<path d="M40.3125 16.875H19.6875C18.1348 16.875 16.875 18.1348 16.875 19.6875V40.3125C16.875 41.8652 18.1348 43.125 19.6875 43.125H40.3125C41.8652 43.125 43.125 41.8652 43.125 40.3125V19.6875C43.125 18.1348 41.8652 16.875 40.3125 16.875ZM30.9375 33.75H28.125V36.5625C28.125 37.0781 27.7031 37.5 27.1875 37.5H25.3125C24.7969 37.5 24.375 37.0781 24.375 36.5625V23.4375C24.375 22.9219 24.7969 22.5 25.3125 22.5H30.9375C34.0371 22.5 36.5625 25.0254 36.5625 28.125C36.5625 31.2246 34.0371 33.75 30.9375 33.75ZM30.9375 26.25H28.125V30H30.9375C31.9688 30 32.8125 29.1562 32.8125 28.125C32.8125 27.0938 31.9688 26.25 30.9375 26.25Z" fill="white"/>
</svg>
