<svg width="70" height="70" viewBox="0 0 70 70" fill="none" xmlns="http://www.w3.org/2000/svg">
<path d="M10.4652 42.9937H18.7324C20.2519 42.9937 21.4881 41.7575 21.4881 40.238V31.9708C21.4881 30.4513 20.2519 29.2151 18.7324 29.2151H10.4652C8.94568 29.2151 7.70947 30.4513 7.70947 31.9708V40.238C7.70947 41.7575 8.94568 42.9937 10.4652 42.9937ZM9.91406 31.9708C9.91406 31.6669 10.1614 31.4197 10.4652 31.4197H18.7324C19.0363 31.4197 19.2835 31.667 19.2835 31.9708V40.238C19.2835 40.542 19.0362 40.7891 18.7324 40.7891H10.4652C10.1612 40.7891 9.91406 40.5418 9.91406 40.238V31.9708Z" fill="#F49200"/>
<path d="M11.0164 62.2838H19.2837C20.8032 62.2838 22.0394 61.0476 22.0394 59.5281V51.2608C22.0394 49.7413 20.8032 48.5051 19.2837 48.5051H11.0164C9.49695 48.5051 8.26074 49.7413 8.26074 51.2608V59.5281C8.26061 61.0476 9.49682 62.2838 11.0164 62.2838ZM10.4652 51.2608C10.4652 50.9569 10.7125 50.7097 11.0163 50.7097H19.2836C19.5875 50.7097 19.8347 50.957 19.8347 51.2608V59.5281C19.8347 59.832 19.5873 60.0792 19.2836 60.0792H11.0164C10.7125 60.0792 10.4653 59.8319 10.4653 59.5281L10.4652 51.2608Z" fill="#F49200"/>
<path d="M55.6592 35.8286C56.268 35.8286 56.7616 35.3352 56.7616 34.7262V31.9705C56.7616 30.4511 55.5254 29.2148 54.0059 29.2148H45.7386C44.2191 29.2148 42.9829 30.4511 42.9829 31.9705V36.3797C42.9829 36.9885 43.4763 37.4821 44.0853 37.4821C44.6941 37.4821 45.1876 36.9885 45.1876 36.3797V31.9705C45.1876 31.6666 45.435 31.4194 45.7387 31.4194H54.006C54.3099 31.4194 54.5571 31.6668 54.5571 31.9705V34.7262C54.557 35.3352 55.0504 35.8286 55.6592 35.8286Z" fill="#F49200"/>
<path d="M39.1248 40.238V31.9708C39.1248 30.4513 37.8886 29.2151 36.3691 29.2151H28.1019C26.5824 29.2151 25.3462 30.4513 25.3462 31.9708V40.238C25.3462 41.7575 26.5824 42.9937 28.1019 42.9937H36.3691C37.8886 42.9937 39.1248 41.7575 39.1248 40.238ZM27.5508 40.238V31.9708C27.5508 31.6669 27.7981 31.4197 28.1019 31.4197H36.3691C36.6731 31.4197 36.9203 31.667 36.9203 31.9708V40.238C36.9203 40.542 36.6729 40.7891 36.3691 40.7891H28.1019C27.798 40.7891 27.5508 40.5418 27.5508 40.238Z" fill="#F49200"/>
<path d="M28.1019 50.7099H34.1646C34.7734 50.7099 35.2669 50.2164 35.2669 49.6075C35.2669 48.9987 34.7734 48.5051 34.1646 48.5051H28.1019C26.5824 48.5051 25.3462 49.7413 25.3462 51.2608V59.5281C25.3462 61.0476 26.5824 62.2838 28.1019 62.2838H34.7157C35.3245 62.2838 35.818 61.7904 35.818 61.1814C35.818 60.5726 35.3245 60.0791 34.7157 60.0791H28.1019C27.798 60.0791 27.5508 59.8317 27.5508 59.5279V51.2607C27.5508 50.957 27.798 50.7099 28.1019 50.7099Z" fill="#F49200"/>
<path d="M21.5057 0H20.4033C17.6681 0 15.443 2.22523 15.443 4.96029V8.26725H7.72705C4.08021 8.26725 1.11328 11.2342 1.11328 14.881V63.3821C1.11328 67.0291 4.08021 69.9959 7.72705 69.9959H34.7334C35.3422 69.9959 35.8357 69.5023 35.8357 68.8935C35.8357 68.2847 35.3422 67.7912 34.7334 67.7912H7.72705C5.29578 67.7912 3.31787 65.8133 3.31787 63.382V24.2504H61.1886V36.9268C61.1886 37.5356 61.682 38.0291 62.291 38.0291C62.8998 38.0291 63.3933 37.5356 63.3933 36.9268V14.881C63.3933 11.2342 60.4264 8.26725 56.7795 8.26725H49.0634V4.96029C49.0633 2.22523 46.838 0 44.1029 0H43.0005C40.2653 0 38.0402 2.22523 38.0402 4.96029V8.26725H26.4661V4.96029C26.4661 2.22523 24.2409 0 21.5057 0ZM17.6476 4.96029C17.6476 3.4408 18.8838 2.20459 20.4033 2.20459H21.5057C23.0252 2.20459 24.2614 3.4408 24.2614 4.96029V8.26725H17.6476V4.96029ZM40.2448 4.96029C40.2448 3.4408 41.481 2.20459 43.0005 2.20459H44.1029C45.6223 2.20459 46.8586 3.4408 46.8586 4.96029V8.26725H40.2448V4.96029ZM43.0006 17.6369H43.5517V18.7392C43.5517 19.348 44.0453 19.8416 44.6541 19.8416C45.2629 19.8416 45.7565 19.348 45.7565 18.7392V13.7789C45.7565 13.1701 45.2629 12.6766 44.6541 12.6766C44.0453 12.6766 43.5517 13.1701 43.5517 13.7789V15.4324H43.0006C41.4811 15.4324 40.2449 14.1962 40.2449 12.6767V10.4718H56.7794C59.2107 10.4718 61.1886 12.4497 61.1886 14.881V22.0459H3.31773V14.881C3.31773 12.4497 5.29564 10.4718 7.72691 10.4718H15.443V12.6764C15.443 15.4116 17.6683 17.6367 20.4033 17.6367H20.9545V18.7391C20.9545 19.3479 21.448 19.8414 22.0568 19.8414C22.6656 19.8414 23.1592 19.3479 23.1592 18.7391V13.7788C23.1592 13.17 22.6656 12.6764 22.0568 12.6764C21.448 12.6764 20.9545 13.17 20.9545 13.7788V15.4323H20.4033C18.8838 15.4323 17.6476 14.1961 17.6476 12.6766V10.4718H38.0402V12.6764C38.0402 15.4116 40.2654 17.6369 43.0006 17.6369Z" fill="#F49200"/>
<path d="M52.9038 38.0334C44.0905 38.0334 36.9204 45.2035 36.9204 54.0168C36.9204 62.8301 44.0905 70.0001 52.9038 70.0001C61.7171 70.0001 68.8872 62.83 68.8872 54.0167C68.8872 45.2034 61.717 38.0334 52.9038 38.0334ZM52.9038 67.7955C45.3062 67.7955 39.125 61.6144 39.125 54.0167C39.125 46.419 45.3062 40.2379 52.9038 40.2379C60.5014 40.2379 66.6826 46.419 66.6826 54.0167C66.6826 61.6144 60.5014 67.7955 52.9038 67.7955Z" fill="#F49200"/>
<path d="M60.6887 52.9144H54.006V43.7515C54.006 43.1427 53.5124 42.6492 52.9036 42.6492C52.2948 42.6492 51.8013 43.1427 51.8013 43.7515V54.0166C51.8013 54.6255 52.2948 55.119 52.9036 55.119H60.6887C61.2975 55.119 61.791 54.6256 61.791 54.0166C61.791 53.4078 61.2976 52.9144 60.6887 52.9144Z" fill="#F49200"/>
</svg>
