<svg width="60" height="60" viewBox="0 0 60 60" fill="none" xmlns="http://www.w3.org/2000/svg">
<circle cx="30" cy="30" r="30" fill="#F49100"/>
<path d="M20 16C17.7938 16 16 17.7938 16 20V40C16 42.2062 17.7938 44 20 44H40C42.2062 44 44 42.2062 44 40V20C44 17.7938 42.2062 16 40 16H20ZM28 30H31C32.1063 30 33 29.1063 33 28C33 26.8937 32.1063 26 31 26H28V30ZM31 34H28V36C28 37.1063 27.1063 38 26 38C24.8937 38 24 37.1063 24 36V32V24.5C24 23.1187 25.1187 22 26.5 22H31C34.3125 22 37 24.6875 37 28C37 31.3125 34.3125 34 31 34Z" fill="white"/>
</svg>
