<svg width="60" height="60" viewBox="0 0 60 60" fill="none" xmlns="http://www.w3.org/2000/svg">
<circle cx="30" cy="30" r="30" fill="#F49200"/>
<path d="M40.3125 16.875H19.6875C18.1348 16.875 16.875 18.1348 16.875 19.6875V40.3125C16.875 41.8652 18.1348 43.125 19.6875 43.125H40.3125C41.8652 43.125 43.125 41.8652 43.125 40.3125V19.6875C43.125 18.1348 41.8652 16.875 40.3125 16.875ZM30.9375 33.75H28.125V36.5625C28.125 37.0781 27.7031 37.5 27.1875 37.5H25.3125C24.7969 37.5 24.375 37.0781 24.375 36.5625V23.4375C24.375 22.9219 24.7969 22.5 25.3125 22.5H30.9375C34.0371 22.5 36.5625 25.0254 36.5625 28.125C36.5625 31.2246 34.0371 33.75 30.9375 33.75ZM30.9375 26.25H28.125V30H30.9375C31.9688 30 32.8125 29.1562 32.8125 28.125C32.8125 27.0938 31.9688 26.25 30.9375 26.25Z" fill="white"/>
<circle cx="30" cy="30" r="30" fill="#F49200"/>
<path d="M19.2738 15.875C18.3849 15.875 17.6667 16.7129 17.6667 17.75V31.8125V34.625V39.3125C17.6667 40.8652 18.7465 42.125 20.0774 42.125H40.9703C42.3012 42.125 43.381 40.8652 43.381 39.3125V31.8125V22.918C43.381 21.8516 42.4066 21.1777 41.6031 21.6816L33.7381 26.6211V22.918C33.7381 21.8516 32.7638 21.1777 31.9602 21.6816L24.0953 26.6211V17.75C24.0953 16.7129 23.3771 15.875 22.4881 15.875H19.2738Z" fill="white"/>
</svg>
